<svg width="354" height="60" viewBox="0 0 354 60" fill="none" xmlns="http://www.w3.org/2000/svg">
<g clip-path="url(#clip0_511_501)">
<path d="M116.357 0.907357L96.5059 20.7589L105.791 30.0436L125.642 10.192L116.357 0.907357Z" fill="#5D97FF"/>
<path d="M105.79 30.0427L96.5055 39.3274L116.357 59.179L125.642 49.8943L105.79 30.0427Z" fill="#5D97FF"/>
<path d="M96.5046 20.7541L76.6481 0.903687L67.3628 10.189L87.2193 30.0394L67.3628 49.8959L76.6481 59.1813L96.5046 39.3248L105.79 30.0394L96.5046 20.7541Z" fill="#161E35"/>
<path d="M161.09 46.4207C158.573 46.4236 156.089 45.8537 153.826 44.7541C151.562 43.6546 149.578 42.0543 148.025 40.0745C146.472 38.0946 145.389 35.7872 144.86 33.3271C144.331 30.8669 144.368 28.3186 144.97 25.8751C145.572 23.4316 146.722 21.1571 148.333 19.2239C149.944 17.2908 151.973 15.7496 154.268 14.7173C156.563 13.685 159.063 13.1886 161.579 13.2657C164.094 13.3427 166.559 13.9913 168.786 15.1622L175.36 3.77843C170.839 1.29666 165.75 0.0341391 160.594 0.11498C155.437 0.195821 150.39 1.61725 145.949 4.23951C141.508 6.86177 137.826 10.5946 135.265 15.071C132.704 19.5474 131.352 24.6133 131.342 29.7706C131.332 34.9279 132.664 39.999 135.207 44.4855C137.751 48.972 141.418 52.7194 145.848 55.3592C150.279 57.999 155.32 59.4403 160.476 59.5416C165.633 59.6428 170.727 58.4004 175.257 55.9365L168.683 44.5466C166.339 45.7714 163.734 46.4142 161.09 46.4207V46.4207Z" fill="#161E35"/>
<path d="M237.641 29.8393C237.641 23.9616 235.898 18.2159 232.632 13.3288C229.367 8.44175 224.726 4.63272 219.295 2.38343C213.865 0.134151 207.89 -0.454361 202.125 0.692314C196.36 1.83899 191.065 4.66935 186.909 8.82549C182.753 12.9816 179.923 18.2769 178.776 24.0416C177.629 29.8063 178.218 35.7816 180.467 41.2119C182.716 46.6421 186.525 51.2834 191.412 54.5489C196.3 57.8143 202.045 59.5572 207.923 59.5572V59.5572C208.396 59.5572 208.863 59.5451 209.324 59.5209H209.591C209.995 59.5209 210.399 59.4905 210.804 59.4299H210.998C211.968 59.3329 212.926 59.1812 213.86 58.9932H213.897C214.37 58.8962 214.837 58.787 215.304 58.6657C218.575 57.8225 221.678 56.4278 224.48 54.5416V57.853H237.55L237.641 29.8393ZM191.378 29.8393C191.381 26.5641 192.356 23.3636 194.178 20.6422C196 17.9208 198.588 15.8007 201.615 14.5498C204.642 13.299 207.972 12.9736 211.184 13.6147C214.395 14.2559 217.345 15.8348 219.659 18.1519C221.974 20.4691 223.55 23.4204 224.187 26.6328C224.825 29.8453 224.496 33.1747 223.242 36.2001C221.988 39.2256 219.865 41.8113 217.141 43.6305C214.418 45.4497 211.216 46.4207 207.941 46.4207C205.764 46.4199 203.609 45.9904 201.598 45.1566C199.588 44.3229 197.761 43.1013 196.222 41.5616C194.684 40.0219 193.463 38.1942 192.631 36.1828C191.799 34.1715 191.371 32.016 191.372 29.8393H191.378Z" fill="#161E35"/>
<path d="M261.009 57.8348H247.909V29.718C247.911 23.5736 249.818 17.581 253.367 12.5652C256.916 7.54935 261.932 3.75687 267.726 1.7098C273.519 -0.337263 279.805 -0.538267 285.717 1.13446C291.629 2.8072 296.878 6.27143 300.74 11.0503C304.603 6.27382 309.851 2.81178 315.762 1.14051C321.673 -0.53076 327.957 -0.329127 333.749 1.71766C339.541 3.76445 344.556 7.5558 348.105 12.5701C351.653 17.5843 353.561 23.5751 353.565 29.718V29.8575V57.8348H340.465V30.3912V30.0637C340.465 29.8757 340.465 29.6937 340.465 29.5057C340.465 25.092 338.712 20.859 335.591 17.738C332.47 14.617 328.237 12.8637 323.823 12.8637C319.409 12.8637 315.176 14.617 312.055 17.738C308.934 20.859 307.181 25.092 307.181 29.5057C307.181 29.5664 307.181 29.627 307.181 29.6877V57.8106H294.257V30.0637C294.257 29.8757 294.257 29.6937 294.257 29.5057C294.258 26.2171 293.284 23.002 291.457 20.2676C289.63 17.5332 287.032 15.4027 283.993 14.1459C280.954 12.8892 277.61 12.5627 274.386 13.2079C271.161 13.8531 268.2 15.4409 265.879 17.7702C264.328 19.309 263.101 21.1417 262.268 23.161C261.434 25.1803 261.013 27.3456 261.027 29.53C261.027 29.5906 261.027 29.6513 261.027 29.7119L261.009 57.8348Z" fill="#161E35"/>
<path d="M59.4299 2.1712H46.3297V30.0697C46.3297 30.1304 46.3297 30.191 46.3297 30.2517C46.3297 34.659 44.5789 38.8858 41.4625 42.0022C38.346 45.1187 34.1192 46.8695 29.7119 46.8695C25.3046 46.8695 21.0778 45.1187 17.9613 42.0022C14.8449 38.8858 13.0941 34.659 13.0941 30.2517C13.0941 30.191 13.0941 30.1304 13.0941 30.0697V2.1712H0V30.1425V30.288C0 38.1697 3.13099 45.7286 8.70419 51.3018C14.2774 56.875 21.8363 60.006 29.718 60.006C37.5997 60.006 45.1586 56.875 50.7318 51.3018C56.305 45.7286 59.436 38.1697 59.436 30.288C59.436 30.2395 59.436 30.191 59.436 30.1425L59.4299 2.1712Z" fill="#161E35"/>
</g>
<defs>
<clipPath id="clip0_511_501">
<rect width="353.571" height="60" fill="white"/>
</clipPath>
</defs>
</svg>
